<?xml version="1.0" encoding="utf-8"?>
<svg id="currency" xmlns="http://www.w3.org/2000/svg" xmlns:xlink="http://www.w3.org/1999/xlink" x="0px" y="0px"
	 viewBox="0 0 100 100" style="enable-background:new 0 0 100 100;" xml:space="preserve">
<g>
	<path d="M18.7,0.1c1.5,1.2,3.1,2.5,6.3,2.5s4.8-1.3,6.3-2.5c0,0,0.1,0,0.1-0.1h-0.3C29.6,1.2,28,2.4,25,2.4S20.4,1.2,18.9,0
		L18.7,0.1C18.6,0,18.7,0,18.7,0.1z"/>
	<path d="M43.7,0.1c1.5,1.2,3.1,2.5,6.3,2.5s4.8-1.3,6.3-2.5c0,0,0.1,0,0.1-0.1h-0.3C54.6,1.2,53,2.4,50,2.4S45.4,1.2,43.9,0
		L43.7,0.1C43.6,0,43.7,0,43.7,0.1z"/>
	<path d="M6.4,0H6.1C4.6,1.2,3,2.4,0,2.4v0.2C3.2,2.6,4.8,1.3,6.4,0C6.3,0,6.4,0,6.4,0z"/>
	<path d="M93.7,0.1c1.5,1.2,3.1,2.5,6.3,2.5V2.4c-3,0-4.6-1.2-6.1-2.4L93.7,0.1C93.6,0,93.7,0,93.7,0.1z"/>
	<path d="M68.7,0.1c1.5,1.2,3.1,2.5,6.3,2.5s4.8-1.3,6.3-2.5c0,0,0.1,0,0.1-0.1h-0.3C79.6,1.2,78,2.4,75,2.4S70.4,1.2,68.9,0
		L68.7,0.1C68.6,0,68.7,0,68.7,0.1z"/>
	<path d="M87.5,2.2c-3.2,0-4.8,1.3-6.3,2.5c-1.5,1.2-3.1,2.5-6.2,2.5s-4.7-1.3-6.2-2.5c-1.5-1.2-3.1-2.5-6.3-2.5s-4.8,1.3-6.3,2.5
		c-1.5,1.2-3.1,2.5-6.2,2.5s-4.7-1.3-6.2-2.5c-1.5-1.2-3.1-2.5-6.3-2.5s-4.8,1.3-6.3,2.5c-1.5,1.2-3.1,2.5-6.2,2.5s-4.7-1.3-6.2-2.5
		c-1.5-1.2-3.1-2.5-6.3-2.5S7.7,3.5,6.2,4.7C4.7,5.9,3.1,7.2,0,7.2v0.2c3.2,0,4.8-1.3,6.3-2.5c1.5-1.2,3.1-2.5,6.2-2.5
		s4.7,1.3,6.2,2.5c1.5,1.2,3.1,2.5,6.3,2.5s4.8-1.3,6.3-2.5c1.5-1.2,3.1-2.5,6.2-2.5s4.7,1.3,6.2,2.5c1.5,1.2,3.1,2.5,6.3,2.5
		s4.8-1.3,6.3-2.5c1.5-1.2,3.1-2.5,6.2-2.5s4.7,1.3,6.2,2.5c1.5,1.2,3.1,2.5,6.3,2.5s4.8-1.3,6.3-2.5c1.5-1.2,3.1-2.5,6.2-2.5
		s4.7,1.3,6.2,2.5c1.5,1.2,3.1,2.5,6.3,2.5V7.2c-3.1,0-4.7-1.3-6.2-2.5C92.3,3.5,90.7,2.2,87.5,2.2z"/>
	<path d="M87.5,6.9c-3.2,0-4.8,1.3-6.3,2.5c-1.5,1.2-3.1,2.5-6.2,2.5s-4.7-1.3-6.2-2.5c-1.5-1.2-3.1-2.5-6.3-2.5s-4.8,1.3-6.3,2.5
		c-1.5,1.2-3.1,2.5-6.2,2.5s-4.7-1.3-6.2-2.5c-1.5-1.2-3.1-2.5-6.3-2.5s-4.8,1.3-6.3,2.5c-1.5,1.2-3.1,2.5-6.2,2.5s-4.7-1.3-6.2-2.5
		c-1.5-1.2-3.1-2.5-6.3-2.5S7.7,8.2,6.2,9.5c-1.5,1.2-3.1,2.5-6.2,2.5v0.2c3.2,0,4.8-1.3,6.3-2.5c1.5-1.2,3.1-2.5,6.2-2.5
		s4.7,1.3,6.2,2.5c1.5,1.2,3.1,2.5,6.3,2.5s4.8-1.3,6.3-2.5c1.5-1.2,3.1-2.5,6.2-2.5s4.7,1.3,6.2,2.5c1.5,1.2,3.1,2.5,6.3,2.5
		s4.8-1.3,6.3-2.5c1.5-1.2,3.1-2.5,6.2-2.5s4.7,1.3,6.2,2.5c1.5,1.2,3.1,2.5,6.3,2.5s4.8-1.3,6.3-2.5c1.5-1.2,3.1-2.5,6.2-2.5
		s4.7,1.3,6.2,2.5c1.5,1.2,3.1,2.5,6.3,2.5v-0.2c-3.1,0-4.7-1.3-6.2-2.5C92.3,8.2,90.7,6.9,87.5,6.9z"/>
	<path d="M87.5,11.7c-3.2,0-4.8,1.3-6.3,2.5c-1.5,1.2-3.1,2.5-6.2,2.5s-4.7-1.3-6.2-2.5c-1.5-1.2-3.1-2.5-6.3-2.5s-4.8,1.3-6.3,2.5
		c-1.5,1.2-3.1,2.5-6.2,2.5s-4.7-1.3-6.2-2.5c-1.5-1.2-3.1-2.5-6.3-2.5s-4.8,1.3-6.3,2.5c-1.5,1.2-3.1,2.5-6.2,2.5s-4.7-1.3-6.2-2.5
		c-1.5-1.2-3.1-2.5-6.3-2.5S7.7,13,6.2,14.2c-1.5,1.2-3.1,2.5-6.2,2.5v0.2c3.2,0,4.8-1.3,6.3-2.5c1.5-1.2,3.1-2.5,6.2-2.5
		s4.7,1.3,6.2,2.5c1.5,1.2,3.1,2.5,6.3,2.5s4.8-1.3,6.3-2.5c1.5-1.2,3.1-2.5,6.2-2.5s4.7,1.3,6.2,2.5c1.5,1.2,3.1,2.5,6.3,2.5
		s4.8-1.3,6.3-2.5c1.5-1.2,3.1-2.5,6.2-2.5s4.7,1.3,6.2,2.5c1.5,1.2,3.1,2.5,6.3,2.5s4.8-1.3,6.3-2.5c1.5-1.2,3.1-2.5,6.2-2.5
		s4.7,1.3,6.2,2.5c1.5,1.2,3.1,2.5,6.3,2.5v-0.2c-3.1,0-4.7-1.3-6.2-2.5C92.3,13,90.7,11.7,87.5,11.7z"/>
	<path d="M87.5,16.5c-3.2,0-4.8,1.3-6.3,2.5c-1.5,1.2-3.1,2.5-6.2,2.5s-4.7-1.3-6.2-2.5c-1.5-1.2-3.1-2.5-6.3-2.5s-4.8,1.3-6.3,2.5
		c-1.5,1.2-3.1,2.5-6.2,2.5s-4.7-1.3-6.2-2.5c-1.5-1.2-3.1-2.5-6.3-2.5s-4.8,1.3-6.3,2.5c-1.5,1.2-3.1,2.5-6.2,2.5s-4.7-1.3-6.2-2.5
		c-1.5-1.2-3.1-2.5-6.3-2.5S7.7,17.7,6.2,19c-1.5,1.2-3.1,2.5-6.2,2.5v0.2c3.2,0,4.8-1.3,6.3-2.5c1.5-1.2,3.1-2.5,6.2-2.5
		s4.7,1.3,6.2,2.5c1.5,1.2,3.1,2.5,6.3,2.5s4.8-1.3,6.3-2.5c1.5-1.2,3.1-2.5,6.2-2.5s4.7,1.3,6.2,2.5c1.5,1.2,3.1,2.5,6.3,2.5
		s4.8-1.3,6.3-2.5c1.5-1.2,3.1-2.5,6.2-2.5s4.7,1.3,6.2,2.5c1.5,1.2,3.1,2.5,6.3,2.5s4.8-1.3,6.3-2.5c1.5-1.2,3.1-2.5,6.2-2.5
		s4.7,1.3,6.2,2.5c1.5,1.2,3.1,2.5,6.3,2.5v-0.2c-3.1,0-4.7-1.3-6.2-2.5C92.3,17.7,90.7,16.5,87.5,16.5z"/>
	<path d="M87.5,21.2c-3.2,0-4.8,1.3-6.3,2.5c-1.5,1.2-3.1,2.5-6.2,2.5s-4.7-1.3-6.2-2.5c-1.5-1.2-3.1-2.5-6.3-2.5s-4.8,1.3-6.3,2.5
		c-1.5,1.2-3.1,2.5-6.2,2.5s-4.7-1.3-6.2-2.5c-1.5-1.2-3.1-2.5-6.3-2.5s-4.8,1.3-6.3,2.5c-1.5,1.2-3.1,2.5-6.2,2.5s-4.7-1.3-6.2-2.5
		c-1.5-1.2-3.1-2.5-6.3-2.5s-4.8,1.3-6.3,2.5C4.7,25,3.1,26.2,0,26.2v0.2c3.2,0,4.8-1.3,6.3-2.5c1.5-1.2,3.1-2.5,6.2-2.5
		s4.7,1.3,6.2,2.5c1.5,1.2,3.1,2.5,6.3,2.5s4.8-1.3,6.3-2.5c1.5-1.2,3.1-2.5,6.2-2.5s4.7,1.3,6.2,2.5c1.5,1.2,3.1,2.5,6.3,2.5
		s4.8-1.3,6.3-2.5c1.5-1.2,3.1-2.5,6.2-2.5s4.7,1.3,6.2,2.5c1.5,1.2,3.1,2.5,6.3,2.5s4.8-1.3,6.3-2.5c1.5-1.2,3.1-2.5,6.2-2.5
		s4.7,1.3,6.2,2.5c1.5,1.2,3.1,2.5,6.3,2.5v-0.2c-3.1,0-4.7-1.3-6.2-2.5C92.3,22.5,90.7,21.2,87.5,21.2z"/>
	<path d="M87.5,26c-3.2,0-4.8,1.3-6.3,2.5C79.7,29.7,78.1,31,75,31s-4.7-1.3-6.2-2.5c-1.5-1.2-3.1-2.5-6.3-2.5s-4.8,1.3-6.3,2.5
		C54.7,29.7,53.1,31,50,31s-4.7-1.3-6.2-2.5c-1.5-1.2-3.1-2.5-6.3-2.5s-4.8,1.3-6.3,2.5C29.7,29.7,28.1,31,25,31s-4.7-1.3-6.2-2.5
		c-1.5-1.2-3.1-2.5-6.3-2.5s-4.8,1.3-6.3,2.5C4.7,29.7,3.1,31,0,31v0.2c3.2,0,4.8-1.3,6.3-2.5c1.5-1.2,3.1-2.5,6.2-2.5
		s4.7,1.3,6.2,2.5c1.5,1.2,3.1,2.5,6.3,2.5s4.8-1.3,6.3-2.5c1.5-1.2,3.1-2.5,6.2-2.5s4.7,1.3,6.2,2.5c1.5,1.2,3.1,2.5,6.3,2.5
		s4.8-1.3,6.3-2.5c1.5-1.2,3.1-2.5,6.2-2.5s4.7,1.3,6.2,2.5c1.5,1.2,3.1,2.5,6.3,2.5s4.8-1.3,6.3-2.5c1.5-1.2,3.1-2.5,6.2-2.5
		s4.7,1.3,6.2,2.5c1.5,1.2,3.1,2.5,6.3,2.5V31c-3.1,0-4.7-1.3-6.2-2.5C92.3,27.3,90.7,26,87.5,26z"/>
	<path d="M87.5,30.7c-3.2,0-4.8,1.3-6.3,2.5c-1.5,1.2-3.1,2.5-6.2,2.5s-4.7-1.3-6.2-2.5c-1.5-1.2-3.1-2.5-6.3-2.5s-4.8,1.3-6.3,2.5
		c-1.5,1.2-3.1,2.5-6.2,2.5s-4.7-1.3-6.2-2.5c-1.5-1.2-3.1-2.5-6.3-2.5s-4.8,1.3-6.3,2.5c-1.5,1.2-3.1,2.5-6.2,2.5s-4.7-1.3-6.2-2.5
		c-1.5-1.2-3.1-2.5-6.3-2.5S7.7,32,6.2,33.3c-1.5,1.2-3.1,2.5-6.2,2.5v0.2c3.2,0,4.8-1.3,6.3-2.5c1.5-1.2,3.1-2.5,6.2-2.5
		s4.7,1.3,6.2,2.5c1.5,1.2,3.1,2.5,6.3,2.5s4.8-1.3,6.3-2.5c1.5-1.2,3.1-2.5,6.2-2.5s4.7,1.3,6.2,2.5c1.5,1.2,3.1,2.5,6.3,2.5
		s4.8-1.3,6.3-2.5c1.5-1.2,3.1-2.5,6.2-2.5s4.7,1.3,6.2,2.5c1.5,1.2,3.1,2.5,6.3,2.5s4.8-1.3,6.3-2.5c1.5-1.2,3.1-2.5,6.2-2.5
		s4.7,1.3,6.2,2.5c1.5,1.2,3.1,2.5,6.3,2.5v-0.2c-3.1,0-4.7-1.3-6.2-2.5C92.3,32,90.7,30.7,87.5,30.7z"/>
	<path d="M87.5,35.5c-3.2,0-4.8,1.3-6.3,2.5c-1.5,1.2-3.1,2.5-6.2,2.5s-4.7-1.3-6.2-2.5c-1.5-1.2-3.1-2.5-6.3-2.5s-4.8,1.3-6.3,2.5
		c-1.5,1.2-3.1,2.5-6.2,2.5s-4.7-1.3-6.2-2.5c-1.5-1.2-3.1-2.5-6.3-2.5s-4.8,1.3-6.3,2.5c-1.5,1.2-3.1,2.5-6.2,2.5s-4.7-1.3-6.2-2.5
		c-1.5-1.2-3.1-2.5-6.3-2.5S7.7,36.8,6.2,38c-1.5,1.2-3.1,2.5-6.2,2.5v0.2c3.2,0,4.8-1.3,6.3-2.5c1.5-1.2,3.1-2.5,6.2-2.5
		s4.7,1.3,6.2,2.5c1.5,1.2,3.1,2.5,6.3,2.5s4.8-1.3,6.3-2.5c1.5-1.2,3.1-2.5,6.2-2.5s4.7,1.3,6.2,2.5c1.5,1.2,3.1,2.5,6.3,2.5
		s4.8-1.3,6.3-2.5c1.5-1.2,3.1-2.5,6.2-2.5s4.7,1.3,6.2,2.5c1.5,1.2,3.1,2.5,6.3,2.5s4.8-1.3,6.3-2.5c1.5-1.2,3.1-2.5,6.2-2.5
		s4.7,1.3,6.2,2.5c1.5,1.2,3.1,2.5,6.3,2.5v-0.2c-3.1,0-4.7-1.3-6.2-2.5C92.3,36.8,90.7,35.5,87.5,35.5z"/>
	<path d="M87.5,40.3c-3.2,0-4.8,1.3-6.3,2.5c-1.5,1.2-3.1,2.5-6.2,2.5s-4.7-1.3-6.2-2.5c-1.5-1.2-3.1-2.5-6.3-2.5s-4.8,1.3-6.3,2.5
		c-1.5,1.2-3.1,2.5-6.2,2.5s-4.7-1.3-6.2-2.5c-1.5-1.2-3.1-2.5-6.3-2.5s-4.8,1.3-6.3,2.5c-1.5,1.2-3.1,2.5-6.2,2.5s-4.7-1.3-6.2-2.5
		c-1.5-1.2-3.1-2.5-6.3-2.5s-4.8,1.3-6.3,2.5C4.7,44,3.1,45.3,0,45.3v0.2c3.2,0,4.8-1.3,6.3-2.5c1.5-1.2,3.1-2.5,6.2-2.5
		s4.7,1.3,6.2,2.5c1.5,1.2,3.1,2.5,6.3,2.5s4.8-1.3,6.3-2.5c1.5-1.2,3.1-2.5,6.2-2.5s4.7,1.3,6.2,2.5c1.5,1.2,3.1,2.5,6.3,2.5
		s4.8-1.3,6.3-2.5c1.5-1.2,3.1-2.5,6.2-2.5s4.7,1.3,6.2,2.5c1.5,1.2,3.1,2.5,6.3,2.5s4.8-1.3,6.3-2.5c1.5-1.2,3.1-2.5,6.2-2.5
		s4.7,1.3,6.2,2.5c1.5,1.2,3.1,2.5,6.3,2.5v-0.2c-3.1,0-4.7-1.3-6.2-2.5C92.3,41.5,90.7,40.3,87.5,40.3z"/>
	<path d="M87.5,45c-3.2,0-4.8,1.3-6.3,2.5C79.7,48.8,78.1,50,75,50s-4.7-1.3-6.2-2.5c-1.5-1.2-3.1-2.5-6.3-2.5s-4.8,1.3-6.3,2.5
		C54.7,48.8,53.1,50,50,50s-4.7-1.3-6.2-2.5c-1.5-1.2-3.1-2.5-6.3-2.5s-4.8,1.3-6.3,2.5C29.7,48.8,28.1,50,25,50s-4.7-1.3-6.2-2.5
		c-1.5-1.2-3.1-2.5-6.3-2.5s-4.8,1.3-6.3,2.5C4.7,48.8,3.1,50,0,50v0.2c3.2,0,4.8-1.3,6.3-2.5c1.5-1.2,3.1-2.5,6.2-2.5
		s4.7,1.3,6.2,2.5c1.5,1.2,3.1,2.5,6.3,2.5s4.8-1.3,6.3-2.5c1.5-1.2,3.1-2.5,6.2-2.5s4.7,1.3,6.2,2.5c1.5,1.2,3.1,2.5,6.3,2.5
		s4.8-1.3,6.3-2.5c1.5-1.2,3.1-2.5,6.2-2.5s4.7,1.3,6.2,2.5c1.5,1.2,3.1,2.5,6.3,2.5s4.8-1.3,6.3-2.5c1.5-1.2,3.1-2.5,6.2-2.5
		s4.7,1.3,6.2,2.5c1.5,1.2,3.1,2.5,6.3,2.5V50c-3.1,0-4.7-1.3-6.2-2.5C92.3,46.3,90.7,45,87.5,45z"/>
	<path d="M87.5,49.8c-3.2,0-4.8,1.3-6.3,2.5c-1.5,1.2-3.1,2.5-6.2,2.5s-4.7-1.3-6.2-2.5c-1.5-1.2-3.1-2.5-6.3-2.5s-4.8,1.3-6.3,2.5
		c-1.5,1.2-3.1,2.5-6.2,2.5s-4.7-1.3-6.2-2.5c-1.5-1.2-3.1-2.5-6.3-2.5s-4.8,1.3-6.3,2.5c-1.5,1.2-3.1,2.5-6.2,2.5s-4.7-1.3-6.2-2.5
		c-1.5-1.2-3.1-2.5-6.3-2.5s-4.8,1.3-6.3,2.5c-1.5,1.2-3.1,2.5-6.2,2.5V55c3.2,0,4.8-1.3,6.3-2.5c1.5-1.2,3.1-2.5,6.2-2.5
		s4.7,1.3,6.2,2.5c1.5,1.2,3.1,2.5,6.3,2.5s4.8-1.3,6.3-2.5c1.5-1.2,3.1-2.5,6.2-2.5s4.7,1.3,6.2,2.5c1.5,1.2,3.1,2.5,6.3,2.5
		s4.8-1.3,6.3-2.5c1.5-1.2,3.1-2.5,6.2-2.5s4.7,1.3,6.2,2.5c1.5,1.2,3.1,2.5,6.3,2.5s4.8-1.3,6.3-2.5c1.5-1.2,3.1-2.5,6.2-2.5
		s4.7,1.3,6.2,2.5c1.5,1.2,3.1,2.5,6.3,2.5v-0.2c-3.1,0-4.7-1.3-6.2-2.5C92.3,51.1,90.7,49.8,87.5,49.8z"/>
	<path d="M87.5,54.6c-3.2,0-4.8,1.3-6.3,2.5c-1.5,1.2-3.1,2.5-6.2,2.5s-4.7-1.3-6.2-2.5c-1.5-1.2-3.1-2.5-6.3-2.5s-4.8,1.3-6.3,2.5
		c-1.5,1.2-3.1,2.5-6.2,2.5s-4.7-1.3-6.2-2.5c-1.5-1.2-3.1-2.5-6.3-2.5s-4.8,1.3-6.3,2.5c-1.5,1.2-3.1,2.5-6.2,2.5s-4.7-1.3-6.2-2.5
		c-1.5-1.2-3.1-2.5-6.3-2.5s-4.8,1.3-6.3,2.5c-1.5,1.2-3.1,2.5-6.2,2.5v0.2c3.2,0,4.8-1.3,6.3-2.5c1.5-1.2,3.1-2.5,6.2-2.5
		s4.7,1.3,6.2,2.5c1.5,1.2,3.1,2.5,6.3,2.5s4.8-1.3,6.3-2.5c1.5-1.2,3.1-2.5,6.2-2.5s4.7,1.3,6.2,2.5c1.5,1.2,3.1,2.5,6.3,2.5
		s4.8-1.3,6.3-2.5c1.5-1.2,3.1-2.5,6.2-2.5s4.7,1.3,6.2,2.5c1.5,1.2,3.1,2.5,6.3,2.5s4.8-1.3,6.3-2.5c1.5-1.2,3.1-2.5,6.2-2.5
		s4.7,1.3,6.2,2.5c1.5,1.2,3.1,2.5,6.3,2.5v-0.2c-3.1,0-4.7-1.3-6.2-2.5C92.3,55.8,90.7,54.6,87.5,54.6z"/>
	<path d="M87.5,59.3c-3.2,0-4.8,1.3-6.3,2.5c-1.5,1.2-3.1,2.5-6.2,2.5s-4.7-1.3-6.2-2.5c-1.5-1.2-3.1-2.5-6.3-2.5s-4.8,1.3-6.3,2.5
		c-1.5,1.2-3.1,2.5-6.2,2.5s-4.7-1.3-6.2-2.5c-1.5-1.2-3.1-2.5-6.3-2.5s-4.8,1.3-6.3,2.5c-1.5,1.2-3.1,2.5-6.2,2.5s-4.7-1.3-6.2-2.5
		c-1.5-1.2-3.1-2.5-6.3-2.5s-4.8,1.3-6.3,2.5c-1.5,1.2-3.1,2.5-6.2,2.5v0.2c3.2,0,4.8-1.3,6.3-2.5c1.5-1.2,3.1-2.5,6.2-2.5
		s4.7,1.3,6.2,2.5c1.5,1.2,3.1,2.5,6.3,2.5s4.8-1.3,6.3-2.5c1.5-1.2,3.1-2.5,6.2-2.5s4.7,1.3,6.2,2.5c1.5,1.2,3.1,2.5,6.3,2.5
		s4.8-1.3,6.3-2.5c1.5-1.2,3.1-2.5,6.2-2.5s4.7,1.3,6.2,2.5c1.5,1.2,3.1,2.5,6.3,2.5s4.8-1.3,6.3-2.5c1.5-1.2,3.1-2.5,6.2-2.5
		s4.7,1.3,6.2,2.5c1.5,1.2,3.1,2.5,6.3,2.5v-0.2c-3.1,0-4.7-1.3-6.2-2.5C92.3,60.6,90.7,59.3,87.5,59.3z"/>
	<path d="M87.5,64.1c-3.2,0-4.8,1.3-6.3,2.5c-1.5,1.2-3.1,2.5-6.2,2.5s-4.7-1.3-6.2-2.5c-1.5-1.2-3.1-2.5-6.3-2.5s-4.8,1.3-6.3,2.5
		c-1.5,1.2-3.1,2.5-6.2,2.5s-4.7-1.3-6.2-2.5c-1.5-1.2-3.1-2.5-6.3-2.5s-4.8,1.3-6.3,2.5c-1.5,1.2-3.1,2.5-6.2,2.5s-4.7-1.3-6.2-2.5
		c-1.5-1.2-3.1-2.5-6.3-2.5s-4.8,1.3-6.3,2.5c-1.5,1.2-3.1,2.5-6.2,2.5v0.2c3.2,0,4.8-1.3,6.3-2.5c1.5-1.2,3.1-2.5,6.2-2.5
		s4.7,1.3,6.2,2.5c1.5,1.2,3.1,2.5,6.3,2.5s4.8-1.3,6.3-2.5c1.5-1.2,3.1-2.5,6.2-2.5s4.7,1.3,6.2,2.5c1.5,1.2,3.1,2.5,6.3,2.5
		s4.8-1.3,6.3-2.5c1.5-1.2,3.1-2.5,6.2-2.5s4.7,1.3,6.2,2.5c1.5,1.2,3.1,2.5,6.3,2.5s4.8-1.3,6.3-2.5c1.5-1.2,3.1-2.5,6.2-2.5
		s4.7,1.3,6.2,2.5c1.5,1.2,3.1,2.5,6.3,2.5v-0.2c-3.1,0-4.7-1.3-6.2-2.5C92.3,65.4,90.7,64.1,87.5,64.1z"/>
	<path d="M87.5,68.8c-3.2,0-4.8,1.3-6.3,2.5c-1.5,1.2-3.1,2.5-6.2,2.5s-4.7-1.3-6.2-2.5c-1.5-1.2-3.1-2.5-6.3-2.5s-4.8,1.3-6.3,2.5
		c-1.5,1.2-3.1,2.5-6.2,2.5s-4.7-1.3-6.2-2.5c-1.5-1.2-3.1-2.5-6.3-2.5s-4.8,1.3-6.3,2.5c-1.5,1.2-3.1,2.5-6.2,2.5s-4.7-1.3-6.2-2.5
		c-1.5-1.2-3.1-2.5-6.3-2.5s-4.8,1.3-6.3,2.5c-1.5,1.2-3.1,2.5-6.2,2.5V74c3.2,0,4.8-1.3,6.3-2.5c1.5-1.2,3.1-2.5,6.2-2.5
		s4.7,1.3,6.2,2.5c1.5,1.2,3.1,2.5,6.3,2.5s4.8-1.3,6.3-2.5c1.5-1.2,3.1-2.5,6.2-2.5s4.7,1.3,6.2,2.5c1.5,1.2,3.1,2.5,6.3,2.5
		s4.8-1.3,6.3-2.5c1.5-1.2,3.1-2.5,6.2-2.5s4.7,1.3,6.2,2.5c1.5,1.2,3.1,2.5,6.3,2.5s4.8-1.3,6.3-2.5c1.5-1.2,3.1-2.5,6.2-2.5
		s4.7,1.3,6.2,2.5c1.5,1.2,3.1,2.5,6.3,2.5v-0.2c-3.1,0-4.7-1.3-6.2-2.5C92.3,70.1,90.7,68.8,87.5,68.8z"/>
	<path d="M87.5,73.6c-3.2,0-4.8,1.3-6.3,2.5c-1.5,1.2-3.1,2.5-6.2,2.5s-4.7-1.3-6.2-2.5c-1.5-1.2-3.1-2.5-6.3-2.5s-4.8,1.3-6.3,2.5
		c-1.5,1.2-3.1,2.5-6.2,2.5s-4.7-1.3-6.2-2.5c-1.5-1.2-3.1-2.5-6.3-2.5s-4.8,1.3-6.3,2.5c-1.5,1.2-3.1,2.5-6.2,2.5s-4.7-1.3-6.2-2.5
		c-1.5-1.2-3.1-2.5-6.3-2.5s-4.8,1.3-6.3,2.5c-1.5,1.2-3.1,2.5-6.2,2.5v0.2c3.2,0,4.8-1.3,6.3-2.5c1.5-1.2,3.1-2.5,6.2-2.5
		s4.7,1.3,6.2,2.5c1.5,1.2,3.1,2.5,6.3,2.5s4.8-1.3,6.3-2.5c1.5-1.2,3.1-2.5,6.2-2.5s4.7,1.3,6.2,2.5c1.5,1.2,3.1,2.5,6.3,2.5
		s4.8-1.3,6.3-2.5c1.5-1.2,3.1-2.5,6.2-2.5s4.7,1.3,6.2,2.5c1.5,1.2,3.1,2.5,6.3,2.5s4.8-1.3,6.3-2.5c1.5-1.2,3.1-2.5,6.2-2.5
		s4.7,1.3,6.2,2.5c1.5,1.2,3.1,2.5,6.3,2.5v-0.2c-3.1,0-4.7-1.3-6.2-2.5C92.3,74.9,90.7,73.6,87.5,73.6z"/>
	<path d="M87.5,78.4c-3.2,0-4.8,1.3-6.3,2.5c-1.5,1.2-3.1,2.5-6.2,2.5s-4.7-1.3-6.2-2.5c-1.5-1.2-3.1-2.5-6.3-2.5s-4.8,1.3-6.3,2.5
		c-1.5,1.2-3.1,2.5-6.2,2.5s-4.7-1.3-6.2-2.5c-1.5-1.2-3.1-2.5-6.3-2.5s-4.8,1.3-6.3,2.5c-1.5,1.2-3.1,2.5-6.2,2.5s-4.7-1.3-6.2-2.5
		c-1.5-1.2-3.1-2.5-6.3-2.5s-4.8,1.3-6.3,2.5c-1.5,1.2-3.1,2.5-6.2,2.5v0.2c3.2,0,4.8-1.3,6.3-2.5c1.5-1.2,3.1-2.5,6.2-2.5
		s4.7,1.3,6.2,2.5c1.5,1.2,3.1,2.5,6.3,2.5s4.8-1.3,6.3-2.5c1.5-1.2,3.1-2.5,6.2-2.5s4.7,1.3,6.2,2.5c1.5,1.2,3.1,2.5,6.3,2.5
		s4.8-1.3,6.3-2.5c1.5-1.2,3.1-2.5,6.2-2.5s4.7,1.3,6.2,2.5c1.5,1.2,3.1,2.5,6.3,2.5s4.8-1.3,6.3-2.5c1.5-1.2,3.1-2.5,6.2-2.5
		s4.7,1.3,6.2,2.5c1.5,1.2,3.1,2.5,6.3,2.5v-0.2c-3.1,0-4.7-1.3-6.2-2.5C92.3,79.6,90.7,78.4,87.5,78.4z"/>
	<path d="M87.5,83.1c-3.2,0-4.8,1.3-6.3,2.5c-1.5,1.2-3.1,2.5-6.2,2.5s-4.7-1.3-6.2-2.5c-1.5-1.2-3.1-2.5-6.3-2.5s-4.8,1.3-6.3,2.5
		c-1.5,1.2-3.1,2.5-6.2,2.5s-4.7-1.3-6.2-2.5c-1.5-1.2-3.1-2.5-6.3-2.5s-4.8,1.3-6.3,2.5c-1.5,1.2-3.1,2.5-6.2,2.5s-4.7-1.3-6.2-2.5
		c-1.5-1.2-3.1-2.5-6.3-2.5s-4.8,1.3-6.3,2.5c-1.5,1.2-3.1,2.5-6.2,2.5v0.2c3.2,0,4.8-1.3,6.3-2.5c1.5-1.2,3.1-2.5,6.2-2.5
		s4.7,1.3,6.2,2.5c1.5,1.2,3.1,2.5,6.3,2.5s4.8-1.3,6.3-2.5c1.5-1.2,3.1-2.5,6.2-2.5s4.7,1.3,6.2,2.5c1.5,1.2,3.1,2.5,6.3,2.5
		s4.8-1.3,6.3-2.5c1.5-1.2,3.1-2.5,6.2-2.5s4.7,1.3,6.2,2.5c1.5,1.2,3.1,2.5,6.3,2.5s4.8-1.3,6.3-2.5c1.5-1.2,3.1-2.5,6.2-2.5
		s4.7,1.3,6.2,2.5c1.5,1.2,3.1,2.5,6.3,2.5v-0.2c-3.1,0-4.7-1.3-6.2-2.5C92.3,84.4,90.7,83.1,87.5,83.1z"/>
	<path d="M87.5,87.9c-3.2,0-4.8,1.3-6.3,2.5c-1.5,1.2-3.1,2.5-6.2,2.5s-4.7-1.3-6.2-2.5c-1.5-1.2-3.1-2.5-6.3-2.5s-4.8,1.3-6.3,2.5
		c-1.5,1.2-3.1,2.5-6.2,2.5s-4.7-1.3-6.2-2.5c-1.5-1.2-3.1-2.5-6.3-2.5s-4.8,1.3-6.3,2.5c-1.5,1.2-3.1,2.5-6.2,2.5s-4.7-1.3-6.2-2.5
		c-1.5-1.2-3.1-2.5-6.3-2.5s-4.8,1.3-6.3,2.5c-1.5,1.2-3.1,2.5-6.2,2.5v0.2c3.2,0,4.8-1.3,6.3-2.5c1.5-1.2,3.1-2.5,6.2-2.5
		s4.7,1.3,6.2,2.5c1.5,1.2,3.1,2.5,6.3,2.5s4.8-1.3,6.3-2.5c1.5-1.2,3.1-2.5,6.2-2.5s4.7,1.3,6.2,2.5c1.5,1.2,3.1,2.5,6.3,2.5
		s4.8-1.3,6.3-2.5c1.5-1.2,3.1-2.5,6.2-2.5s4.7,1.3,6.2,2.5c1.5,1.2,3.1,2.5,6.3,2.5s4.8-1.3,6.3-2.5c1.5-1.2,3.1-2.5,6.2-2.5
		s4.7,1.3,6.2,2.5c1.5,1.2,3.1,2.5,6.3,2.5v-0.2c-3.1,0-4.7-1.3-6.2-2.5C92.3,89.2,90.7,87.9,87.5,87.9z"/>
	<path d="M87.5,92.7c-3.2,0-4.8,1.3-6.3,2.5c-1.5,1.2-3.1,2.5-6.2,2.5s-4.7-1.3-6.2-2.5c-1.5-1.2-3.1-2.5-6.3-2.5s-4.8,1.3-6.3,2.5
		c-1.5,1.2-3.1,2.5-6.2,2.5s-4.7-1.3-6.2-2.5c-1.5-1.2-3.1-2.5-6.3-2.5s-4.8,1.3-6.3,2.5c-1.5,1.2-3.1,2.5-6.2,2.5s-4.7-1.3-6.2-2.5
		c-1.5-1.2-3.1-2.5-6.3-2.5s-4.8,1.3-6.3,2.5c-1.5,1.2-3.1,2.5-6.2,2.5v0.2c3.2,0,4.8-1.3,6.3-2.5c1.5-1.2,3.1-2.5,6.2-2.5
		s4.7,1.3,6.2,2.5c1.5,1.2,3.1,2.5,6.3,2.5s4.8-1.3,6.3-2.5c1.5-1.2,3.1-2.5,6.2-2.5s4.7,1.3,6.2,2.5c1.5,1.2,3.1,2.5,6.3,2.5
		s4.8-1.3,6.3-2.5c1.5-1.2,3.1-2.5,6.2-2.5s4.7,1.3,6.2,2.5c1.5,1.2,3.1,2.5,6.3,2.5s4.8-1.3,6.3-2.5c1.5-1.2,3.1-2.5,6.2-2.5
		s4.7,1.3,6.2,2.5c1.5,1.2,3.1,2.5,6.3,2.5v-0.2c-3.1,0-4.7-1.3-6.2-2.5C92.3,93.9,90.7,92.7,87.5,92.7z"/>
	<path d="M18.8,99.9c-1.5-1.2-3.1-2.5-6.3-2.5s-4.8,1.3-6.3,2.5c0,0-0.1,0-0.1,0.1h0.3c1.5-1.2,3.1-2.4,6.1-2.4s4.6,1.2,6.1,2.4
		L18.8,99.9C18.9,100,18.8,100,18.8,99.9z"/>
	<path d="M87.5,97.4c-3.2,0-4.8,1.3-6.3,2.5c0,0-0.1,0-0.1,0.1h0.3c1.5-1.2,3.1-2.4,6.1-2.4s4.6,1.2,6.1,2.4h0.3c0,0-0.1,0-0.1-0.1
		C92.3,98.7,90.7,97.4,87.5,97.4z"/>
	<path d="M43.8,99.9c-1.5-1.2-3.1-2.5-6.3-2.5s-4.8,1.3-6.3,2.5c0,0-0.1,0-0.1,0.1h0.3c1.5-1.2,3.1-2.4,6.1-2.4s4.6,1.2,6.1,2.4
		L43.8,99.9C43.9,100,43.8,100,43.8,99.9z"/>
	<path d="M68.8,99.9c-1.5-1.2-3.1-2.5-6.3-2.5s-4.8,1.3-6.3,2.5c0,0-0.1,0-0.1,0.1h0.3c1.5-1.2,3.1-2.4,6.1-2.4s4.6,1.2,6.1,2.4
		L68.8,99.9C68.9,100,68.8,100,68.8,99.9z"/>
</g>
</svg>
